<?xml version="1.0" encoding="UTF-8"?>
<svg version="1.1" viewBox="0 0 1080 1080" width="1080" height="1080" xmlns="http://www.w3.org/2000/svg">
<path transform="translate(0)" d="m0 0h1080v1080h-1080z" fill="#78B2CD"/>
<path transform="translate(731,9)" d="m0 0h12l13 4 10 6 14 12 150 150 7 8 10 12 10 15 10 19 6 16 5 22 1 8v29l-4 23-8 24-8 16-9 16-10 14-11 13-11 12-14 14-14 11-14 10-21 12-25 10-21 5-15 2h-23l-16-2-19-5-16-6-17-9-12-8-11-9-10-9-162-162-7-11-4-10-1-4v-14l3-10 7-12 7-8 12-9 10-5 10-2h9l12 3 11 6 13 11 149 149 13 10 14 8 14 5 5 1h21l15-4 15-8 11-9 4-4h2l2-4 9-10 8-14 5-13 1-5v-21l-5-16-8-15-8-10-9-10-149-149-9-13-5-12-1-5v-12l4-13 7-11 9-10 14-9z" fill="#fff"/>
<path transform="translate(419,322)" d="m0 0h9l13 4 9 5 11 9 139 139 4-2 20-20 16-8 5-1h12l12 4 9 6 6 5 7 10 5 12 1 6v9l-3 12-7 11-11 12-9 9 2 4 30 30 9 13 4 9 2 10-1 13-5 12-7 10-9 9-12 8-14 4h-12l-13-4-11-7-10-9-27-27-7 6-112 112-12 9-10 4-5 1h-13l-12-4-11-7-7-7-11-16-14-26-13-23-15-28-13-23-16-30-10-18-16-29-13-24-10-18-3-11v-16l4-14 7-11 10-10 14-7 9-2h16l14 4 11 7 8 8 8 14 18 34 15 28 18 34 15 28 18 34 2 4 4-2 65-65-1-4-143-143-7-11-4-10-1-5v-12l4-13 7-11 8-9 12-9 12-5z" fill="#fff"/>
<path transform="translate(208,542)" d="m0 0h8l13 3 12 7 8 8 6 10 3 11v13l-4 13-7 11-114 114 2 4 10 9 64 64 7-6 67-67 13-7 11-2h8l12 3 10 5 10 9 6 9 3 9 1 5v11l-3 12-6 10-11 12-62 62 6 7 53 53 9 11 6 11 3 9v18l-4 11-7 11-12 12-14 8-8 2h-14l-10-3-11-6-10-8-233-233-8-11-5-10-2-7v-17l4-11 7-11 158-158 10-6 8-3z" fill="#fff"/>
</svg>
